<svg width="90" height="90" viewBox="0 0 90 90" fill="none" xmlns="http://www.w3.org/2000/svg">
<g filter="url(#filter0_d_1139_484)">
<path d="M45 86C68.196 86 87 67.196 87 44C87 20.804 68.196 2 45 2C21.804 2 3 20.804 3 44C3 67.196 21.804 86 45 86Z" fill="#FF0420"/>
<path d="M33.4614 55.7602C30.9282 55.7602 28.8527 55.1504 27.2347 53.9309C25.6382 52.6895 24.8398 50.9255 24.8398 48.6389C24.8398 48.1597 24.8931 47.5717 24.9994 46.8749C25.2763 45.3069 25.6701 43.4232 26.181 41.2235C27.6285 35.2347 31.3646 32.2402 37.3891 32.2402C39.0283 32.2402 40.4971 32.5233 41.7956 33.0896C43.0942 33.634 44.116 34.4615 44.8611 35.5722C45.6062 36.6612 45.9788 37.9679 45.9788 39.4923C45.9788 39.9496 45.9255 40.5267 45.819 41.2235C45.4998 43.1617 45.1166 45.0455 44.6696 46.8749C43.9245 49.8584 42.6366 52.0906 40.8057 53.5715C38.975 55.0306 36.5269 55.7602 33.4614 55.7602ZM33.9085 51.0562C35.1006 51.0562 36.1118 50.6969 36.9421 49.9782C37.7935 49.2596 38.4003 48.1597 38.7622 46.6788C39.2517 44.6317 39.6243 42.8461 39.8797 41.3216C39.9649 40.8642 40.0074 40.396 40.0074 39.9168C40.0074 37.9351 38.9964 36.9442 36.974 36.9442C35.7819 36.9442 34.7601 37.3036 33.9085 38.0223C33.0782 38.7408 32.4822 39.8407 32.1203 41.3216C31.7371 42.7807 31.3539 44.5664 30.9708 46.6788C30.8857 47.1144 30.843 47.5717 30.843 48.0509C30.843 50.0544 31.8648 51.0562 33.9085 51.0562Z" fill="white"/>
<path d="M47.445 55.4332C47.2108 55.4332 47.0299 55.3569 46.9021 55.2044C46.7957 55.0302 46.7638 54.8343 46.8063 54.6164L51.2129 33.3832C51.2554 33.1437 51.3725 32.9476 51.5642 32.7952C51.7557 32.6427 51.958 32.5664 52.1709 32.5664H60.6648C63.0277 32.5664 64.9222 33.0674 66.3486 34.0692C67.7962 35.0709 68.52 36.5191 68.52 38.4138C68.52 38.9583 68.4561 39.5245 68.3284 40.1125C67.7962 42.617 66.7212 44.468 65.1032 45.6659C63.5067 46.8635 61.3139 47.4625 58.5253 47.4625H54.2144L52.7456 54.6164C52.7031 54.856 52.586 55.052 52.3943 55.2044C52.2028 55.3569 52.0005 55.4332 51.7877 55.4332H47.445ZM58.7487 42.9545C59.6428 42.9545 60.4198 42.704 61.0799 42.2032C61.761 41.7022 62.208 40.9835 62.4211 40.0471C62.4849 39.677 62.5168 39.3502 62.5168 39.0672C62.5168 38.4357 62.3359 37.9565 61.974 37.6298C61.612 37.2813 60.9947 37.1071 60.1218 37.1071H56.2901L55.0766 42.9545H58.7487Z" fill="white"/>
</g>
<defs>
<filter id="filter0_d_1139_484" x="0" y="0" width="90" height="90" filterUnits="userSpaceOnUse" color-interpolation-filters="sRGB">
<feFlood flood-opacity="0" result="BackgroundImageFix"/>
<feColorMatrix in="SourceAlpha" type="matrix" values="0 0 0 0 0 0 0 0 0 0 0 0 0 0 0 0 0 0 127 0" result="hardAlpha"/>
<feOffset dy="1"/>
<feGaussianBlur stdDeviation="1.5"/>
<feColorMatrix type="matrix" values="0 0 0 0 0.129412 0 0 0 0 0.105882 0 0 0 0 0.305882 0 0 0 0.15 0"/>
<feBlend mode="normal" in2="BackgroundImageFix" result="effect1_dropShadow_1139_484"/>
<feBlend mode="normal" in="SourceGraphic" in2="effect1_dropShadow_1139_484" result="shape"/>
</filter>
</defs>
</svg>
